<?xml version="1.0" encoding="UTF-8"?>
<!-- Rosy Bit sakura motif. Generated by scripts/make-icons.py -->
<svg xmlns="http://www.w3.org/2000/svg" width="256" height="256" viewBox="0 0 256 256">
  <defs>
    <mask id="notches" maskUnits="userSpaceOnUse" x="0" y="0" width="256" height="256">
      <rect x="0" y="0" width="256" height="256" fill="white"/>
      <g transform="translate(128.0,128.0)">
      <circle cx="102.0" cy="0" r="20.0" fill="black" transform="rotate(-90.0)"/>
      <circle cx="102.0" cy="0" r="20.0" fill="black" transform="rotate(-18.0)"/>
      <circle cx="102.0" cy="0" r="20.0" fill="black" transform="rotate(54.0)"/>
      <circle cx="102.0" cy="0" r="20.0" fill="black" transform="rotate(126.0)"/>
      <circle cx="102.0" cy="0" r="20.0" fill="black" transform="rotate(198.0)"/>
      </g>
    </mask>
  </defs>
  <g transform="translate(128.0,128.0)" fill="currentColor">
    <g mask="url(#notches)">
      <ellipse cx="55.0" cy="0" rx="45.0" ry="30.0" transform="rotate(-90.0)"/>
      <ellipse cx="55.0" cy="0" rx="45.0" ry="30.0" transform="rotate(-18.0)"/>
      <ellipse cx="55.0" cy="0" rx="45.0" ry="30.0" transform="rotate(54.0)"/>
      <ellipse cx="55.0" cy="0" rx="45.0" ry="30.0" transform="rotate(126.0)"/>
      <ellipse cx="55.0" cy="0" rx="45.0" ry="30.0" transform="rotate(198.0)"/>
    </g>
    <circle cx="0" cy="0" r="24.0"/>
  </g>
</svg>
